<?xml version="1.0" encoding="iso-8859-1"?>
<!-- Generator: Adobe Illustrator 19.0.0, SVG Export Plug-In . SVG Version: 6.00 Build 0)  -->
<svg version="1.1" id="Layer_1" xmlns="http://www.w3.org/2000/svg" xmlns:xlink="http://www.w3.org/1999/xlink" x="0px" y="0px"
	 viewBox="0 0 473.681 473.681" style="enable-background:new 0 0 473.681 473.681;" xml:space="preserve">
<path style="fill:#337180;" d="M236.837,0C106.037,0,0.002,106.028,0.002,236.842c0,130.795,106.036,236.838,236.835,236.838
	c130.807,0,236.842-106.043,236.842-236.838C473.679,106.024,367.639,0,236.837,0z"/>
<path style="fill:#7EAF37;" d="M30.401,352.885c40.608,72.077,117.812,120.796,206.436,120.796
	c88.628,0,165.835-48.715,206.443-120.796H30.401z"/>
<g>
	<rect x="122.387" y="317.662" style="fill:#CECBC8;" width="229.049" height="26.166"/>
	<rect x="173.742" y="285.128" style="fill:#CECBC8;" width="125.781" height="20.728"/>
	<rect x="163.1" y="304.723" style="fill:#CECBC8;" width="28.301" height="8.38"/>
	<rect x="282.287" y="304.723" style="fill:#CECBC8;" width="28.297" height="8.38"/>
</g>
<g>
	<path style="fill:#CEBDB2;" d="M278.985,274.01c-10.28,0-20.598,7.479-20.598,11.877h41.195
		C299.583,281.489,289.265,274.01,278.985,274.01z"/>
	<path style="fill:#CEBDB2;" d="M194.28,274.01c-10.28,0-20.598,7.479-20.598,11.877h41.199
		C214.878,281.489,204.56,274.01,194.28,274.01z"/>
</g>
<g>
	<rect x="199.044" y="300.385" style="fill:#CECBC8;" width="75.203" height="19.016"/>
	<rect x="201.999" y="256.258" style="fill:#CECBC8;" width="69.242" height="16.133"/>
</g>
<g>
	<path style="fill:#8E8D8D;" d="M213.221,258.046c-1.174,0-2.128,0.957-2.128,2.128v8.728h4.256v-8.728
		C215.349,259.003,214.399,258.046,213.221,258.046z"/>
	<path style="fill:#8E8D8D;" d="M206.621,258.046c-1.174,0-2.128,0.957-2.128,2.128v8.728h4.256v-8.728
		C208.752,259.003,207.799,258.046,206.621,258.046z"/>
	<path style="fill:#8E8D8D;" d="M219.818,258.046c-1.174,0-2.128,0.957-2.128,2.128v8.728h4.256v-8.728
		C221.949,259.003,220.996,258.046,219.818,258.046z"/>
	<path style="fill:#8E8D8D;" d="M226.418,258.046c-1.174,0-2.128,0.957-2.128,2.128v8.728h4.256v-8.728
		C228.546,259.003,227.592,258.046,226.418,258.046z"/>
	<path style="fill:#8E8D8D;" d="M233.015,258.046c-1.174,0-2.128,0.957-2.128,2.128v8.728h4.259v-8.728
		C235.143,259.003,234.193,258.046,233.015,258.046z"/>
	<path style="fill:#8E8D8D;" d="M239.615,258.046c-1.174,0-2.128,0.957-2.128,2.128v8.728h4.259v-8.728
		C241.743,259.003,240.789,258.046,239.615,258.046z"/>
	<path style="fill:#8E8D8D;" d="M246.212,258.046c-1.174,0-2.128,0.957-2.128,2.128v8.728h4.256v-8.728
		C248.339,259.003,247.386,258.046,246.212,258.046z"/>
	<path style="fill:#8E8D8D;" d="M252.812,258.046c-1.174,0-2.128,0.957-2.128,2.128v8.728h4.259v-8.728
		C254.94,259.003,253.986,258.046,252.812,258.046z"/>
	<path style="fill:#8E8D8D;" d="M259.409,258.046c-1.174,0-2.128,0.957-2.128,2.128v8.728h4.256v-8.728
		C261.536,259.003,260.583,258.046,259.409,258.046z"/>
	<path style="fill:#8E8D8D;" d="M266.005,258.046c-1.174,0-2.128,0.957-2.128,2.128v8.728h4.256v-8.728
		C268.133,259.003,267.179,258.046,266.005,258.046z"/>
</g>
<rect x="200.563" y="289.578" style="fill:#6B6966;" width="72.144" height="8.38"/>
<rect x="200.563" y="270.431" style="fill:#8E8D8D;" width="72.144" height="14.495"/>
<rect x="203.532" y="283.366" style="fill:#CECBC8;" width="66.183" height="8.38"/>
<rect x="130.423" y="310.183" style="fill:#ADA8A5;" width="212.423" height="8.089"/>
<rect x="269.573" y="272.398" style="fill:#BFBFBF;" width="17.329" height="27.576"/>
<rect x="269.573" y="272.398" style="fill:#AAAAAA;" width="13.623" height="27.576"/>
<path style="fill:#7C7A77;" d="M278.338,266.418c-4.33,0-8.676,4.215-8.676,6.694h17.348
	C287.01,270.633,282.665,266.418,278.338,266.418z"/>
<rect x="186.405" y="272.398" style="fill:#BFBFBF;" width="17.329" height="27.576"/>
<rect x="186.405" y="272.398" style="fill:#AAAAAA;" width="12.644" height="27.576"/>
<path style="fill:#7C7A77;" d="M195.185,266.418c-4.33,0-8.676,4.215-8.676,6.694h17.348
	C203.857,270.633,199.516,266.418,195.185,266.418z"/>
<polygon style="fill:#273244;" points="127.046,166.246 123.183,203.904 131.186,203.904 "/>
<polygon style="fill:#1D273D;" points="127.046,166.246 123.183,203.904 129.253,203.904 "/>
<polygon style="fill:#192335;" points="127.046,166.246 123.183,203.904 127.185,203.904 "/>
<polygon style="fill:#151D2D;" points="123.183,203.904 124.975,203.904 127.046,166.246 "/>
<polygon style="fill:#C4C4C4;" points="131.186,203.904 127.185,203.422 123.183,203.904 121.942,323.357 132.424,323.357 "/>
<polygon style="fill:#B2B1B1;" points="129.253,203.695 126.975,203.422 123.183,203.904 121.942,323.357 130.079,323.357 "/>
<polygon style="fill:#AAAAAA;" points="126.493,203.489 123.183,203.904 121.942,323.357 127.319,323.357 "/>
<path style="fill:#B2B1B1;" d="M135.019,230.634c-0.093-0.161-0.251-0.269-0.423-0.299c-0.157-0.03-3.792-0.677-7.539-0.677
	c-3.751,0-7.139,0.647-7.288,0.681c-0.172,0.03-0.325,0.138-0.419,0.299c-0.097,0.161-0.123,0.355-0.075,0.538
	c0,0,0.497,3.807,1.141,5.378c0.643,1.574,1.731,3.687,1.731,3.687c0.079,0.314,0.329,0.52,0.61,0.482
	c0.03-0.007,2.681-0.396,4.555-0.396c1.874,0,4.267,0.389,4.293,0.393c0.022,0.004,0.045,0.007,0.071,0.007
	c0.251,0,0.471-0.198,0.546-0.486c0,0,0.954-1.384,1.765-3.784c0.808-2.397,1.107-5.28,1.107-5.28
	C135.139,230.993,135.113,230.795,135.019,230.634z"/>
<path style="fill:#BAB9B9;" d="M135.019,230.634c-0.093-0.161-0.251-0.269-0.423-0.299c-0.157-0.03-3.792-0.677-7.539-0.677
	c-3.751,0-7.139,0.647-7.288,0.681c-0.172,0.03-0.325,0.138-0.419,0.299c-0.097,0.161-0.123,0.355-0.075,0.538
	c0,0,0.086,0.662,0.236,1.548c0.075-0.064,0.161-0.101,0.258-0.123c0.15-0.026,3.534-0.673,7.288-0.673
	c3.747,0,7.382,0.647,7.539,0.673c0.101,0.022,0.194,0.071,0.277,0.135c0.153-0.92,0.221-1.559,0.221-1.559
	C135.139,230.993,135.113,230.795,135.019,230.634z"/>
<path style="fill:#B2B1B1;" d="M135.019,261.535c-0.093-0.161-0.251-0.269-0.423-0.299c-0.157-0.026-3.792-0.677-7.539-0.677
	c-3.751,0-7.139,0.651-7.288,0.677c-0.172,0.03-0.325,0.138-0.419,0.303c-0.097,0.157-0.123,0.355-0.075,0.535
	c0,0,0.497,3.811,1.141,5.378c0.643,1.574,1.731,3.683,1.731,3.683c0.079,0.314,0.329,0.524,0.61,0.482
	c0.03-0.004,2.681-0.393,4.555-0.393c1.874,0,4.267,0.389,4.293,0.393c0.022,0.004,0.045,0.007,0.071,0.007
	c0.251,0,0.471-0.198,0.546-0.49c0,0,0.954-1.376,1.765-3.777c0.811-2.401,1.107-5.288,1.107-5.288
	C135.139,261.89,135.113,261.695,135.019,261.535z"/>
<path style="fill:#BAB9B9;" d="M135.019,261.535c-0.093-0.161-0.251-0.269-0.423-0.299c-0.157-0.026-3.792-0.677-7.539-0.677
	c-3.751,0-7.139,0.651-7.288,0.677c-0.172,0.03-0.325,0.138-0.419,0.303c-0.097,0.157-0.123,0.355-0.075,0.535
	c0,0,0.086,0.662,0.236,1.548c0.075-0.06,0.161-0.101,0.258-0.116c0.15-0.03,3.534-0.681,7.288-0.681
	c3.747,0,7.382,0.651,7.539,0.677c0.101,0.019,0.194,0.067,0.277,0.131c0.153-0.92,0.221-1.559,0.221-1.559
	C135.139,261.89,135.113,261.695,135.019,261.535z"/>
<g>
	<ellipse style="fill:#B5A428;" cx="127.058" cy="167.727" rx="1.242" ry="0.725"/>
	<ellipse style="fill:#B5A428;" cx="127.058" cy="165.723" rx="1.103" ry="0.643"/>
	<ellipse style="fill:#B5A428;" cx="127.058" cy="164.003" rx="0.965" ry="0.565"/>
	<polygon style="fill:#B5A428;" points="127.046,160.966 126.736,169.212 127.39,169.212 	"/>
</g>
<polygon style="fill:#273244;" points="346.354,166.246 342.491,203.904 350.493,203.904 "/>
<polygon style="fill:#1D273D;" points="346.354,166.246 342.491,203.904 348.564,203.904 "/>
<polygon style="fill:#192335;" points="346.354,166.246 342.491,203.904 346.492,203.904 "/>
<polygon style="fill:#151D2D;" points="342.491,203.904 344.286,203.904 346.354,166.246 "/>
<polygon style="fill:#C4C4C4;" points="350.493,203.904 346.492,203.422 342.491,203.904 341.249,323.357 351.735,323.357 "/>
<polygon style="fill:#B2B1B1;" points="348.564,203.695 346.286,203.422 342.491,203.904 341.249,323.357 349.387,323.357 "/>
<polygon style="fill:#AAAAAA;" points="345.804,203.489 342.491,203.904 341.249,323.357 346.63,323.357 "/>
<path style="fill:#B2B1B1;" d="M354.326,230.634c-0.097-0.161-0.247-0.269-0.423-0.299c-0.157-0.03-3.792-0.677-7.539-0.677
	c-3.751,0-7.139,0.647-7.288,0.681c-0.172,0.03-0.325,0.138-0.419,0.299c-0.094,0.161-0.12,0.355-0.075,0.538
	c0,0,0.494,3.807,1.141,5.378c0.643,1.574,1.731,3.687,1.731,3.687c0.075,0.314,0.329,0.52,0.61,0.482
	c0.026-0.007,2.678-0.396,4.555-0.396c1.874,0,4.267,0.389,4.293,0.393c0.022,0.004,0.045,0.007,0.071,0.007
	c0.247,0,0.471-0.198,0.542-0.486c0,0,0.957-1.384,1.765-3.784c0.812-2.397,1.107-5.28,1.107-5.28
	C354.45,230.993,354.42,230.795,354.326,230.634z"/>
<path style="fill:#BAB9B9;" d="M354.326,230.634c-0.097-0.161-0.247-0.269-0.423-0.299c-0.157-0.03-3.792-0.677-7.539-0.677
	c-3.751,0-7.139,0.647-7.288,0.681c-0.172,0.03-0.325,0.138-0.419,0.299c-0.094,0.161-0.12,0.355-0.075,0.538
	c0,0,0.086,0.662,0.236,1.548c0.075-0.064,0.161-0.101,0.258-0.123c0.15-0.026,3.538-0.673,7.288-0.673
	c3.747,0,7.382,0.647,7.539,0.673c0.105,0.022,0.198,0.071,0.28,0.135c0.153-0.92,0.217-1.559,0.217-1.559
	C354.45,230.993,354.42,230.795,354.326,230.634z"/>
<path style="fill:#B2B1B1;" d="M354.326,261.535c-0.097-0.161-0.247-0.269-0.423-0.299c-0.157-0.026-3.792-0.677-7.539-0.677
	c-3.751,0-7.139,0.651-7.288,0.677c-0.172,0.03-0.325,0.138-0.419,0.303c-0.094,0.157-0.12,0.355-0.075,0.535
	c0,0,0.494,3.811,1.141,5.378c0.643,1.574,1.731,3.683,1.731,3.683c0.075,0.314,0.329,0.524,0.61,0.482
	c0.026-0.004,2.678-0.393,4.555-0.393c1.874,0,4.267,0.389,4.293,0.393c0.022,0.004,0.045,0.007,0.071,0.007
	c0.247,0,0.471-0.198,0.542-0.49c0,0,0.957-1.376,1.765-3.777c0.812-2.401,1.107-5.288,1.107-5.288
	C354.45,261.89,354.42,261.695,354.326,261.535z"/>
<path style="fill:#BAB9B9;" d="M354.326,261.535c-0.097-0.161-0.247-0.269-0.423-0.299c-0.157-0.026-3.792-0.677-7.539-0.677
	c-3.751,0-7.139,0.651-7.288,0.677c-0.172,0.03-0.325,0.138-0.419,0.303c-0.094,0.157-0.12,0.355-0.075,0.535
	c0,0,0.086,0.662,0.236,1.548c0.075-0.06,0.161-0.101,0.258-0.116c0.15-0.03,3.538-0.681,7.288-0.681
	c3.747,0,7.382,0.651,7.539,0.677c0.105,0.019,0.198,0.067,0.28,0.131c0.153-0.92,0.217-1.559,0.217-1.559
	C354.45,261.89,354.42,261.695,354.326,261.535z"/>
<g>
	<ellipse style="fill:#B5A428;" cx="346.346" cy="167.727" rx="1.242" ry="0.725"/>
	<ellipse style="fill:#B5A428;" cx="346.346" cy="165.723" rx="1.103" ry="0.643"/>
	<ellipse style="fill:#B5A428;" cx="346.346" cy="164.003" rx="0.965" ry="0.565"/>
	<polygon style="fill:#B5A428;" points="346.354,160.966 346.043,169.212 346.698,169.212 	"/>
</g>
<polygon style="fill:#273244;" points="158.638,205.972 155.893,232.788 161.589,232.788 "/>
<polygon style="fill:#1D273D;" points="158.638,205.972 155.893,232.788 160.213,232.788 "/>
<polygon style="fill:#192335;" points="158.638,205.972 155.893,232.788 158.739,232.788 "/>
<polygon style="fill:#151D2D;" points="155.893,232.788 157.169,232.788 158.638,205.972 "/>
<polygon style="fill:#C4C4C4;" points="161.589,232.788 158.739,232.444 155.893,232.788 155.007,317.867 162.471,317.867 "/>
<polygon style="fill:#B2B1B1;" points="160.213,232.643 158.593,232.444 155.893,232.788 155.007,317.867 160.804,317.867 "/>
<polygon style="fill:#AAAAAA;" points="158.249,232.497 155.893,232.788 155.007,317.867 158.84,317.867 "/>
<path style="fill:#B2B1B1;" d="M164.319,251.827c-0.067-0.112-0.176-0.191-0.303-0.213c-0.112-0.019-2.7-0.482-5.37-0.482
	c-2.674,0-5.086,0.464-5.191,0.482c-0.123,0.026-0.236,0.105-0.299,0.221c-0.064,0.116-0.082,0.251-0.052,0.381
	c0,0,0.355,2.715,0.811,3.829c0.46,1.122,1.234,2.621,1.234,2.621c0.052,0.228,0.236,0.374,0.434,0.344
	c0.022,0,1.911-0.28,3.246-0.28c1.331,0,3.04,0.28,3.059,0.28c0.015,0.004,0.03,0.004,0.049,0.004c0.176,0,0.337-0.138,0.389-0.348
	c0,0,0.681-0.98,1.257-2.689c0.576-1.713,0.789-3.766,0.789-3.766C164.405,252.085,164.386,251.943,164.319,251.827z"/>
<path style="fill:#BAB9B9;" d="M164.319,251.827c-0.067-0.112-0.176-0.191-0.303-0.213c-0.112-0.019-2.7-0.482-5.37-0.482
	c-2.674,0-5.086,0.464-5.191,0.482c-0.123,0.026-0.236,0.105-0.299,0.221c-0.064,0.116-0.082,0.251-0.052,0.381
	c0,0,0.064,0.471,0.168,1.099c0.052-0.041,0.116-0.071,0.183-0.082c0.105-0.019,2.517-0.482,5.191-0.482
	c2.666,0,5.254,0.464,5.37,0.482c0.075,0.015,0.142,0.049,0.198,0.093c0.112-0.658,0.157-1.111,0.157-1.111
	C164.405,252.085,164.386,251.943,164.319,251.827z"/>
<path style="fill:#B2B1B1;" d="M164.319,273.838c-0.067-0.116-0.176-0.194-0.303-0.213c-0.112-0.022-2.7-0.482-5.37-0.482
	c-2.674,0-5.086,0.46-5.191,0.482c-0.123,0.022-0.236,0.097-0.299,0.213c-0.064,0.116-0.082,0.251-0.052,0.385
	c0,0,0.355,2.711,0.811,3.826c0.46,1.122,1.234,2.629,1.234,2.629c0.052,0.224,0.236,0.37,0.434,0.344
	c0.022-0.004,1.911-0.28,3.246-0.28c1.331,0,3.04,0.277,3.059,0.28h0.049c0.176,0,0.337-0.135,0.389-0.344
	c0,0,0.681-0.984,1.257-2.693s0.789-3.766,0.789-3.766C164.405,274.088,164.386,273.95,164.319,273.838z"/>
<path style="fill:#BAB9B9;" d="M164.319,273.838c-0.067-0.116-0.176-0.194-0.303-0.213c-0.112-0.022-2.7-0.482-5.37-0.482
	c-2.674,0-5.086,0.46-5.191,0.482c-0.123,0.022-0.236,0.097-0.299,0.213c-0.064,0.116-0.082,0.251-0.052,0.385
	c0,0,0.064,0.475,0.168,1.103c0.052-0.045,0.116-0.075,0.183-0.086c0.105-0.019,2.517-0.479,5.191-0.479
	c2.666,0,5.254,0.46,5.37,0.479c0.075,0.015,0.142,0.049,0.198,0.093c0.112-0.658,0.157-1.111,0.157-1.111
	C164.405,274.088,164.386,273.95,164.319,273.838z"/>
<g>
	<ellipse style="fill:#B5A428;" cx="158.642" cy="207.008" rx="0.883" ry="0.516"/>
	<ellipse style="fill:#B5A428;" cx="158.642" cy="205.587" rx="0.785" ry="0.456"/>
	<ellipse style="fill:#B5A428;" cx="158.642" cy="204.371" rx="0.688" ry="0.4"/>
	<polygon style="fill:#B5A428;" points="158.642,202.214 158.421,208.085 158.885,208.085 	"/>
</g>
<polygon style="fill:#273244;" points="314.84,205.972 312.088,232.788 317.787,232.788 "/>
<polygon style="fill:#1D273D;" points="314.84,205.972 312.088,232.788 316.407,232.788 "/>
<polygon style="fill:#192335;" points="314.84,205.972 312.088,232.788 314.938,232.788 "/>
<polygon style="fill:#151D2D;" points="312.088,232.788 313.363,232.788 314.84,205.972 "/>
<polygon style="fill:#C4C4C4;" points="317.787,232.788 314.938,232.444 312.088,232.788 311.205,317.867 318.67,317.867 "/>
<polygon style="fill:#B2B1B1;" points="316.407,232.643 314.788,232.444 312.088,232.788 311.205,317.867 316.998,317.867 "/>
<polygon style="fill:#AAAAAA;" points="314.444,232.497 312.088,232.788 311.205,317.867 315.035,317.867 "/>
<path style="fill:#B2B1B1;" d="M320.517,251.827c-0.067-0.112-0.176-0.191-0.303-0.213c-0.112-0.019-2.7-0.482-5.37-0.482
	c-2.674,0-5.086,0.464-5.191,0.482c-0.123,0.026-0.232,0.105-0.299,0.221c-0.067,0.112-0.086,0.251-0.052,0.381
	c0,0,0.352,2.715,0.811,3.829c0.46,1.122,1.238,2.621,1.238,2.621c0.052,0.228,0.236,0.374,0.43,0.344
	c0.022,0,1.911-0.28,3.246-0.28c1.331,0,3.04,0.28,3.059,0.28c0.015,0.004,0.034,0.004,0.052,0.004c0.176,0,0.337-0.138,0.385-0.348
	c0,0,0.684-0.98,1.257-2.689c0.576-1.713,0.789-3.766,0.789-3.766C320.603,252.085,320.584,251.943,320.517,251.827z"/>
<path style="fill:#BAB9B9;" d="M320.517,251.827c-0.067-0.112-0.176-0.191-0.303-0.213c-0.112-0.019-2.7-0.482-5.37-0.482
	c-2.674,0-5.086,0.464-5.191,0.482c-0.123,0.026-0.232,0.105-0.299,0.221c-0.067,0.112-0.086,0.251-0.052,0.381
	c0,0,0.064,0.471,0.165,1.099c0.056-0.041,0.116-0.071,0.183-0.082c0.105-0.019,2.517-0.482,5.191-0.482
	c2.666,0,5.258,0.464,5.37,0.482c0.075,0.015,0.142,0.049,0.198,0.093c0.108-0.658,0.157-1.111,0.157-1.111
	C320.603,252.085,320.584,251.943,320.517,251.827z"/>
<path style="fill:#B2B1B1;" d="M320.517,273.838c-0.067-0.116-0.176-0.194-0.303-0.213c-0.112-0.022-2.7-0.482-5.37-0.482
	c-2.674,0-5.086,0.46-5.191,0.482c-0.123,0.022-0.232,0.097-0.299,0.213c-0.067,0.112-0.086,0.251-0.052,0.385
	c0,0,0.352,2.711,0.811,3.826c0.46,1.122,1.238,2.629,1.238,2.629c0.052,0.224,0.236,0.37,0.43,0.344
	c0.022-0.004,1.911-0.28,3.246-0.28c1.331,0,3.04,0.277,3.059,0.28h0.052c0.176,0,0.337-0.135,0.385-0.344
	c0,0,0.684-0.984,1.257-2.693c0.576-1.709,0.789-3.766,0.789-3.766C320.603,274.088,320.584,273.95,320.517,273.838z"/>
<path style="fill:#BAB9B9;" d="M320.517,273.838c-0.067-0.116-0.176-0.194-0.303-0.213c-0.112-0.022-2.7-0.482-5.37-0.482
	c-2.674,0-5.086,0.46-5.191,0.482c-0.123,0.022-0.232,0.097-0.299,0.213c-0.067,0.112-0.086,0.251-0.052,0.385
	c0,0,0.064,0.475,0.165,1.103c0.056-0.045,0.116-0.075,0.183-0.086c0.105-0.019,2.517-0.479,5.191-0.479
	c2.666,0,5.258,0.46,5.37,0.479c0.075,0.015,0.142,0.049,0.198,0.093c0.108-0.658,0.157-1.111,0.157-1.111
	C320.603,274.088,320.584,273.95,320.517,273.838z"/>
<g>
	<ellipse style="fill:#B5A428;" cx="314.822" cy="207.008" rx="0.886" ry="0.516"/>
	<ellipse style="fill:#B5A428;" cx="314.822" cy="205.587" rx="0.789" ry="0.456"/>
	<ellipse style="fill:#B5A428;" cx="314.822" cy="204.371" rx="0.692" ry="0.4"/>
	<polygon style="fill:#B5A428;" points="314.84,202.214 314.616,208.085 315.083,208.085 	"/>
</g>
<rect x="59.97" y="340.847" style="fill:#ADA8A5;" width="353.726" height="32.351"/>
<rect x="59.97" y="335.313" style="fill:#D6D3D0;" width="353.726" height="5.531"/>
<rect x="59.97" y="334.565" style="fill:#C6BBB3;" width="353.726" height="1.488"/>
<polygon style="fill:#273244;" points="67.426,110.336 61.469,168.442 73.814,168.442 "/>
<polygon style="fill:#1D273D;" points="67.426,110.336 61.469,168.442 70.833,168.442 "/>
<polygon style="fill:#192335;" points="67.426,110.336 61.469,168.442 67.64,168.442 "/>
<polygon style="fill:#151D2D;" points="61.469,168.442 64.237,168.442 67.426,110.336 "/>
<polygon style="fill:#C4C4C4;" points="73.814,168.442 67.64,167.697 61.469,168.442 59.555,352.761 75.732,352.761 "/>
<polygon style="fill:#B2B1B1;" points="70.833,168.124 67.322,167.697 61.469,168.442 59.555,352.761 72.108,352.761 "/>
<polygon style="fill:#AAAAAA;" points="66.577,167.806 61.469,168.442 59.555,352.761 67.856,352.761 "/>
<path style="fill:#B2B1B1;" d="M79.73,209.689c-0.146-0.247-0.385-0.415-0.654-0.46c-0.243-0.045-5.849-1.043-11.634-1.043
	s-11.013,0.998-11.245,1.043c-0.266,0.049-0.501,0.221-0.647,0.467c-0.146,0.247-0.187,0.546-0.112,0.83
	c0,0,0.767,5.875,1.758,8.298c0.995,2.427,2.674,5.688,2.674,5.688c0.116,0.486,0.512,0.8,0.939,0.744
	c0.045-0.004,4.136-0.61,7.03-0.61c2.887,0,6.585,0.606,6.623,0.61c0.037,0.004,0.075,0.007,0.108,0.007
	c0.385,0,0.729-0.303,0.838-0.752c0,0,1.477-2.128,2.722-5.83c1.249-3.702,1.709-8.152,1.709-8.152
	C79.917,210.239,79.875,209.936,79.73,209.689z"/>
<path style="fill:#BAB9B9;" d="M79.73,209.689c-0.146-0.247-0.385-0.415-0.654-0.46c-0.243-0.045-5.849-1.043-11.634-1.043
	s-11.013,0.998-11.245,1.043c-0.266,0.049-0.501,0.221-0.647,0.467c-0.146,0.247-0.187,0.546-0.112,0.83
	c0,0,0.135,1.017,0.359,2.386c0.116-0.086,0.251-0.157,0.396-0.18c0.232-0.045,5.456-1.043,11.245-1.043
	c5.785,0,11.387,0.998,11.634,1.043c0.157,0.026,0.307,0.101,0.43,0.206c0.236-1.425,0.337-2.408,0.337-2.408
	C79.917,210.239,79.875,209.936,79.73,209.689z"/>
<path style="fill:#B2B1B1;" d="M79.73,257.361c-0.146-0.247-0.385-0.415-0.654-0.46c-0.243-0.041-5.849-1.043-11.634-1.043
	s-11.013,1.006-11.245,1.047c-0.266,0.049-0.501,0.217-0.647,0.464c-0.146,0.247-0.187,0.546-0.112,0.83
	c0,0,0.767,5.871,1.758,8.298c0.995,2.423,2.674,5.688,2.674,5.688c0.116,0.49,0.512,0.8,0.939,0.74
	c0.045-0.004,4.136-0.606,7.03-0.606c2.887,0,6.585,0.602,6.623,0.606c0.037,0.004,0.075,0.011,0.108,0.011
	c0.385,0,0.729-0.303,0.838-0.752c0,0,1.477-2.128,2.722-5.834c1.249-3.702,1.709-8.152,1.709-8.152
	C79.917,257.915,79.875,257.612,79.73,257.361z"/>
<path style="fill:#BAB9B9;" d="M79.73,257.361c-0.146-0.247-0.385-0.415-0.654-0.46c-0.243-0.041-5.849-1.043-11.634-1.043
	s-11.013,1.006-11.245,1.047c-0.266,0.049-0.501,0.217-0.647,0.464c-0.146,0.247-0.187,0.546-0.112,0.83
	c0,0,0.135,1.017,0.359,2.386c0.116-0.09,0.251-0.157,0.396-0.183c0.232-0.045,5.456-1.043,11.245-1.043
	c5.785,0,11.387,1.002,11.634,1.04c0.157,0.03,0.307,0.101,0.43,0.206c0.236-1.425,0.337-2.405,0.337-2.405
	C79.917,257.915,79.875,257.612,79.73,257.361z"/>
<g>
	<ellipse style="fill:#B5A428;" cx="67.449" cy="112.621" rx="1.915" ry="1.118"/>
	<ellipse style="fill:#B5A428;" cx="67.449" cy="109.54" rx="1.705" ry="0.995"/>
	<ellipse style="fill:#B5A428;" cx="67.449" cy="106.881" rx="1.488" ry="0.868"/>
	<polygon style="fill:#B5A428;" points="67.43,102.199 66.951,114.917 67.961,114.917 	"/>
</g>
<polygon style="fill:#273244;" points="405.82,110.336 399.863,168.442 412.208,168.442 "/>
<polygon style="fill:#1D273D;" points="405.82,110.336 399.863,168.442 409.227,168.442 "/>
<polygon style="fill:#192335;" points="405.82,110.336 399.863,168.442 406.034,168.442 "/>
<polygon style="fill:#151D2D;" points="399.863,168.442 402.631,168.442 405.82,110.336 "/>
<polygon style="fill:#C4C4C4;" points="412.208,168.442 406.034,167.697 399.863,168.442 397.949,352.761 414.122,352.761 "/>
<polygon style="fill:#B2B1B1;" points="409.227,168.124 405.716,167.697 399.863,168.442 397.949,352.761 410.502,352.761 "/>
<polygon style="fill:#AAAAAA;" points="404.971,167.806 399.863,168.442 397.949,352.761 406.247,352.761 "/>
<path style="fill:#B2B1B1;" d="M418.124,209.689c-0.146-0.247-0.385-0.415-0.654-0.46c-0.243-0.045-5.849-1.043-11.634-1.043
	c-5.789,0-11.017,0.998-11.245,1.043c-0.266,0.049-0.501,0.221-0.643,0.467c-0.146,0.247-0.187,0.546-0.112,0.83
	c0,0,0.767,5.875,1.758,8.298c0.995,2.427,2.674,5.688,2.674,5.688c0.116,0.486,0.512,0.8,0.939,0.744
	c0.045-0.004,4.136-0.61,7.03-0.61c2.887,0,6.585,0.606,6.623,0.61s0.075,0.007,0.108,0.007c0.385,0,0.729-0.303,0.838-0.752
	c0,0,1.477-2.128,2.726-5.83c1.245-3.702,1.709-8.152,1.709-8.152C418.311,210.239,418.269,209.936,418.124,209.689z"/>
<path style="fill:#BAB9B9;" d="M418.124,209.689c-0.146-0.247-0.385-0.415-0.654-0.46c-0.243-0.045-5.849-1.043-11.634-1.043
	c-5.789,0-11.017,0.998-11.245,1.043c-0.266,0.049-0.501,0.221-0.643,0.467c-0.146,0.247-0.187,0.546-0.112,0.83
	c0,0,0.135,1.017,0.359,2.386c0.116-0.086,0.254-0.157,0.396-0.18c0.232-0.045,5.456-1.043,11.245-1.043
	c5.781,0,11.387,0.998,11.634,1.043c0.157,0.026,0.303,0.101,0.43,0.206c0.236-1.425,0.34-2.408,0.34-2.408
	C418.311,210.239,418.269,209.936,418.124,209.689z"/>
<path style="fill:#B2B1B1;" d="M418.124,257.361c-0.146-0.247-0.385-0.415-0.654-0.46c-0.243-0.041-5.849-1.043-11.634-1.043
	c-5.789,0-11.017,1.006-11.245,1.047c-0.266,0.049-0.501,0.217-0.643,0.464c-0.146,0.247-0.187,0.546-0.112,0.83
	c0,0,0.767,5.871,1.758,8.298c0.991,2.427,2.674,5.688,2.674,5.688c0.116,0.49,0.512,0.8,0.939,0.74
	c0.045-0.004,4.136-0.606,7.03-0.606c2.887,0,6.585,0.602,6.623,0.606c0.037,0.004,0.075,0.011,0.108,0.011
	c0.385,0,0.729-0.303,0.838-0.752c0,0,1.477-2.128,2.726-5.834c1.245-3.702,1.709-8.152,1.709-8.152
	C418.311,257.915,418.269,257.612,418.124,257.361z"/>
<path style="fill:#BAB9B9;" d="M418.124,257.361c-0.146-0.247-0.385-0.415-0.654-0.46c-0.243-0.041-5.849-1.043-11.634-1.043
	c-5.789,0-11.017,1.006-11.245,1.047c-0.266,0.049-0.501,0.217-0.643,0.464c-0.146,0.247-0.187,0.546-0.112,0.83
	c0,0,0.135,1.017,0.359,2.386c0.116-0.09,0.254-0.157,0.396-0.183c0.232-0.045,5.456-1.043,11.245-1.043
	c5.781,0,11.387,1.002,11.634,1.04c0.157,0.03,0.303,0.101,0.43,0.206c0.236-1.425,0.34-2.405,0.34-2.405
	C418.311,257.915,418.269,257.612,418.124,257.361z"/>
<g>
	<ellipse style="fill:#B5A428;" cx="405.805" cy="112.621" rx="1.915" ry="1.118"/>
	<ellipse style="fill:#B5A428;" cx="405.805" cy="109.54" rx="1.702" ry="0.995"/>
	<ellipse style="fill:#B5A428;" cx="405.805" cy="106.881" rx="1.488" ry="0.868"/>
	<polygon style="fill:#B5A428;" points="405.82,102.199 405.342,114.917 406.355,114.917 	"/>
</g>
<g>
	<path style="fill:#CEBDB2;" d="M268.657,324.52c-8.163,0-16.357,6.701-16.357,10.643h32.714
		C285.013,331.222,276.816,324.52,268.657,324.52z"/>
	<path style="fill:#CEBDB2;" d="M306.677,324.52c-8.163,0-16.357,6.701-16.357,10.643h32.714
		C323.034,331.222,314.84,324.52,306.677,324.52z"/>
	<path style="fill:#CEBDB2;" d="M344.536,324.52c-8.163,0-16.357,6.701-16.357,10.643h32.714
		C360.893,331.222,352.7,324.52,344.536,324.52z"/>
	<path style="fill:#CEBDB2;" d="M381.442,324.52c-8.163,0-16.357,6.701-16.357,10.643h32.714
		C397.799,331.222,389.606,324.52,381.442,324.52z"/>
</g>
<g>
	<polygon style="fill:#B5A428;" points="305.835,322.927 302.552,325.347 309.384,325.347 	"/>
	<rect x="305.622" y="317.55" style="fill:#B5A428;" width="0.475" height="6.129"/>
	<polygon style="fill:#B5A428;" points="268.38,322.927 265.093,325.347 271.925,325.347 	"/>
	<rect x="268.189" y="317.55" style="fill:#B5A428;" width="0.479" height="6.129"/>
	<polygon style="fill:#B5A428;" points="344.435,322.927 341.148,325.347 347.98,325.347 	"/>
	<rect x="344.215" y="317.55" style="fill:#B5A428;" width="0.479" height="6.129"/>
	<polygon style="fill:#B5A428;" points="381.652,322.927 378.364,325.347 385.2,325.347 	"/>
	<rect x="381.461" y="317.55" style="fill:#B5A428;" width="0.479" height="6.129"/>
</g>
<rect x="227.031" y="317.998" style="fill:#AAAAAA;" width="19.393" height="12.206"/>
<g>
	<path style="fill:#CEBDB2;" d="M236.844,311.611c-4.899,0-9.816,4.02-9.816,6.38h19.629
		C246.66,315.631,241.747,311.611,236.844,311.611z"/>
	<path style="fill:#CEBDB2;" d="M236.844,293.938c-7.307,0-14.64,4.121-14.64,6.544h29.277
		C251.484,298.055,244.151,293.938,236.844,293.938z"/>
	<path style="fill:#CEBDB2;" d="M236.844,271.381c-13.893,0-27.834,7.483-27.834,11.881h55.671
		C264.681,278.864,250.737,271.381,236.844,271.381z"/>
	<path style="fill:#CEBDB2;" d="M236.844,234.479c-17.217,0-34.505,14.128-34.505,22.449h69.006
		C271.349,248.607,254.065,234.479,236.844,234.479z"/>
</g>
<rect x="221.444" y="329.479" style="fill:#BFB6B0;" width="30.773" height="44.134"/>
<rect x="226.568" y="337.519" style="fill:#E0DCDA;" width="20.56" height="6.324"/>
<path style="fill:#BFB6B0;" d="M221.444,329.483h30.773c-2.928,0-15.388-6.75-15.388-6.75S224.5,329.483,221.444,329.483z"/>
<g>
	<path style="fill:#8E8D8D;" d="M242.734,284.903c-0.916,0-1.66,0.598-1.66,1.335v3.979h3.321v-3.979
		C244.394,285.501,243.65,284.903,242.734,284.903z"/>
	<path style="fill:#8E8D8D;" d="M248.201,285.184c-0.744,0-1.346,0.568-1.346,1.271v3.766h2.693v-3.766
		C249.544,285.752,248.942,285.184,248.201,285.184z"/>
	<path style="fill:#8E8D8D;" d="M253.519,285.468c-0.707,0-1.279,0.538-1.279,1.197v3.553h2.554v-3.553
		C254.794,286.003,254.222,285.468,253.519,285.468z"/>
	<path style="fill:#8E8D8D;" d="M258.201,285.999c-0.625,0-1.126,0.479-1.126,1.066v3.156h2.255v-3.156
		C259.33,286.474,258.825,285.999,258.201,285.999z"/>
	<path style="fill:#8E8D8D;" d="M262.355,286.388c-0.46,0-0.83,0.426-0.83,0.95v2.808h1.657v-2.808
		C263.182,286.814,262.812,286.388,262.355,286.388z"/>
	<path style="fill:#8E8D8D;" d="M231.668,284.903c-0.879,0-1.589,0.598-1.589,1.335v3.979h3.179v-3.979
		C233.258,285.501,232.544,284.903,231.668,284.903z"/>
	<path style="fill:#8E8D8D;" d="M237.203,284.611c-1.032,0-1.866,0.651-1.866,1.455v4.297h3.732v-4.297
		C239.069,285.262,238.231,284.611,237.203,284.611z"/>
	<path style="fill:#8E8D8D;" d="M226.13,285.184c-0.74,0-1.346,0.568-1.346,1.271v3.766h2.696v-3.766
		C227.48,285.752,226.874,285.184,226.13,285.184z"/>
	<path style="fill:#8E8D8D;" d="M220.884,285.468c-0.703,0-1.275,0.538-1.275,1.197v3.553h2.554v-3.553
		C222.162,286.003,221.587,285.468,220.884,285.468z"/>
	<path style="fill:#8E8D8D;" d="M216.202,285.999c-0.625,0-1.129,0.479-1.129,1.066v3.156h2.255v-3.156
		C217.327,286.474,216.822,285.999,216.202,285.999z"/>
	<path style="fill:#8E8D8D;" d="M212.372,286.388c-0.46,0-0.83,0.426-0.83,0.95v2.808h1.657v-2.808
		C213.199,286.814,212.828,286.388,212.372,286.388z"/>
	<path style="fill:#8E8D8D;" d="M241.728,302.98c-0.744,0-1.346,0.494-1.346,1.088v3.231h2.696v-3.231
		C243.078,303.47,242.472,302.98,241.728,302.98z"/>
	<path style="fill:#8E8D8D;" d="M246.167,303.208c-0.606,0-1.092,0.46-1.092,1.032v3.055h2.184v-3.055
		C247.259,303.668,246.773,303.208,246.167,303.208z"/>
	<path style="fill:#8E8D8D;" d="M250.49,303.444c-0.572,0-1.04,0.434-1.04,0.972v2.883h2.075v-2.883
		C251.526,303.878,251.062,303.444,250.49,303.444z"/>
	<path style="fill:#8E8D8D;" d="M254.293,303.874c-0.505,0-0.916,0.385-0.916,0.864v2.562h1.832v-2.562
		C255.209,304.255,254.798,303.874,254.293,303.874z"/>
	<path style="fill:#8E8D8D;" d="M257.67,304.192c-0.374,0-0.677,0.344-0.677,0.767v2.285h1.346v-2.285
		C258.343,304.536,258.04,304.192,257.67,304.192z"/>
	<path style="fill:#8E8D8D;" d="M232.734,302.98c-0.711,0-1.29,0.494-1.29,1.088v3.231h2.58v-3.231
		C234.028,303.47,233.448,302.98,232.734,302.98z"/>
	<path style="fill:#8E8D8D;" d="M237.233,302.748c-0.838,0-1.518,0.527-1.518,1.174v3.496h3.033v-3.496
		C238.747,303.276,238.067,302.748,237.233,302.748z"/>
	<path style="fill:#8E8D8D;" d="M228.239,303.208c-0.606,0-1.092,0.46-1.092,1.032v3.055h2.188v-3.055
		C229.335,303.668,228.841,303.208,228.239,303.208z"/>
	<path style="fill:#8E8D8D;" d="M223.976,303.444c-0.572,0-1.04,0.434-1.04,0.972v2.883h2.075v-2.883
		C225.012,303.878,224.548,303.444,223.976,303.444z"/>
	<path style="fill:#8E8D8D;" d="M220.173,303.874c-0.509,0-0.92,0.385-0.92,0.864v2.562h1.832v-2.562
		C221.085,304.255,220.678,303.874,220.173,303.874z"/>
	<path style="fill:#8E8D8D;" d="M217.058,304.192c-0.374,0-0.673,0.344-0.673,0.767v2.285h1.346v-2.285
		C217.731,304.536,217.428,304.192,217.058,304.192z"/>
</g>
<g>
	<polygon style="fill:#B5A428;" points="236.829,228.174 230.995,235.137 243.126,235.137 	"/>
	<rect x="236.478" y="212.729" style="fill:#B5A428;" width="0.853" height="17.595"/>
	<polygon style="fill:#B5A428;" points="195.271,264.646 193.424,266.845 197.264,266.845 	"/>
	<rect x="195.155" y="259.736" style="fill:#B5A428;" width="0.269" height="5.564"/>
	<polygon style="fill:#B5A428;" points="278.406,264.646 276.558,266.845 280.399,266.845 	"/>
	<rect x="278.286" y="259.736" style="fill:#B5A428;" width="0.269" height="5.564"/>
</g>
<g>
	<path style="fill:#CEBDB2;" d="M296.228,295.568c-7.307,0-14.64,5.998-14.64,9.525h29.277
		C310.865,301.567,303.532,295.568,296.228,295.568z"/>
	<path style="fill:#CEBDB2;" d="M177.463,295.568c-7.303,0-14.64,5.998-14.64,9.525h29.281
		C192.104,301.567,184.77,295.568,177.463,295.568z"/>
</g>
<rect x="272.602" y="299.263" style="fill:#AAAAAA;" width="10.501" height="19.292"/>
<path style="fill:#7C7A77;" d="M277.923,295.079c-2.621,0-5.254,2.947-5.254,4.682h10.512
	C283.181,298.025,280.545,295.079,277.923,295.079z"/>
<rect x="190.234" y="299.263" style="fill:#AAAAAA;" width="10.501" height="19.292"/>
<path style="fill:#7C7A77;" d="M195.555,295.079c-2.621,0-5.254,2.947-5.254,4.682h10.512
	C200.813,298.025,198.181,295.079,195.555,295.079z"/>
<g>
	<polygon style="fill:#B5A428;" points="296.307,292.483 293.024,296.402 299.856,296.402 	"/>
	<rect x="296.124" y="283.781" style="fill:#B5A428;" width="0.479" height="9.914"/>
	<polygon style="fill:#B5A428;" points="176.27,292.483 172.983,296.402 179.816,296.402 	"/>
	<rect x="176.083" y="283.781" style="fill:#B5A428;" width="0.479" height="9.914"/>
</g>
<g>
	<path style="fill:#CEBDB2;" d="M91.823,324.52c-8.163,0-16.357,6.701-16.357,10.643h32.714
		C108.18,331.222,99.987,324.52,91.823,324.52z"/>
	<path style="fill:#CEBDB2;" d="M128.939,324.52c-8.16,0-16.357,6.701-16.357,10.643h32.714
		C145.296,331.222,137.102,324.52,128.939,324.52z"/>
	<path style="fill:#CEBDB2;" d="M168.129,324.52c-8.163,0-16.357,6.701-16.357,10.643h32.714
		C184.486,331.222,176.293,324.52,168.129,324.52z"/>
	<path style="fill:#CEBDB2;" d="M205.462,324.52c-8.163,0-16.357,6.701-16.357,10.643h32.714
		C221.818,331.222,213.625,324.52,205.462,324.52z"/>
</g>
<g>
	<polygon style="fill:#B5A428;" points="129.518,322.927 126.231,325.347 133.067,325.347 	"/>
	<rect x="129.316" y="317.55" style="fill:#B5A428;" width="0.479" height="6.129"/>
	<polygon style="fill:#B5A428;" points="92.059,322.927 88.772,325.347 95.604,325.347 	"/>
	<rect x="91.857" y="317.55" style="fill:#B5A428;" width="0.479" height="6.129"/>
	<polygon style="fill:#B5A428;" points="168.111,322.927 164.827,325.347 171.66,325.347 	"/>
	<rect x="167.894" y="317.55" style="fill:#B5A428;" width="0.479" height="6.129"/>
	<polygon style="fill:#B5A428;" points="205.331,322.927 202.044,325.347 208.879,325.347 	"/>
	<rect x="205.132" y="317.55" style="fill:#B5A428;" width="0.479" height="6.129"/>
</g>
<g>
	<path style="fill:#8E8D8D;" d="M95.309,344.265c-0.509,0-0.916,0.333-0.916,0.74v4.136h1.836v-4.136
		C96.229,344.594,95.817,344.265,95.309,344.265z"/>
	<path style="fill:#8E8D8D;" d="M98.334,344.422c-0.411,0-0.744,0.314-0.744,0.703v4.02h1.488v-4.02
		C99.078,344.736,98.742,344.422,98.334,344.422z"/>
	<path style="fill:#8E8D8D;" d="M101.277,344.579c-0.389,0-0.707,0.295-0.707,0.662v3.904h1.414v-3.904
		C101.984,344.875,101.666,344.579,101.277,344.579z"/>
	<path style="fill:#8E8D8D;" d="M103.865,344.875c-0.344,0-0.625,0.262-0.625,0.583v3.684h1.245v-3.684
		C104.486,345.136,104.209,344.875,103.865,344.875z"/>
	<path style="fill:#8E8D8D;" d="M106.165,345.088c-0.254,0-0.46,0.236-0.46,0.524v3.493h0.92v-3.493
		C106.625,345.323,106.419,345.088,106.165,345.088z"/>
	<path style="fill:#8E8D8D;" d="M89.187,344.265c-0.482,0-0.879,0.333-0.879,0.74v4.136h1.758v-4.136
		C90.066,344.594,89.673,344.265,89.187,344.265z"/>
	<path style="fill:#8E8D8D;" d="M92.25,344.108c-0.568,0-1.032,0.359-1.032,0.804v4.308h2.064v-4.308
		C93.282,344.463,92.818,344.108,92.25,344.108z"/>
	<path style="fill:#8E8D8D;" d="M86.128,344.422c-0.411,0-0.744,0.314-0.744,0.703v4.02h1.488v-4.02
		C86.872,344.736,86.539,344.422,86.128,344.422z"/>
	<path style="fill:#8E8D8D;" d="M83.222,344.579c-0.389,0-0.707,0.295-0.707,0.662v3.904h1.414v-3.904
		C83.929,344.875,83.611,344.579,83.222,344.579z"/>
	<path style="fill:#8E8D8D;" d="M80.635,344.875c-0.344,0-0.625,0.262-0.625,0.583v3.684h1.249v-3.684
		C81.259,345.136,80.979,344.875,80.635,344.875z"/>
	<path style="fill:#8E8D8D;" d="M78.514,345.088c-0.254,0-0.46,0.236-0.46,0.524v3.493h0.916v-3.493
		C78.97,345.323,78.768,345.088,78.514,345.088z"/>
	<path style="fill:#8E8D8D;" d="M131.998,344.265c-0.505,0-0.916,0.333-0.916,0.74v4.136h1.836v-4.136
		C132.918,344.594,132.506,344.265,131.998,344.265z"/>
	<path style="fill:#8E8D8D;" d="M135.023,344.422c-0.411,0-0.744,0.314-0.744,0.703v4.02h1.488v-4.02
		C135.767,344.736,135.434,344.422,135.023,344.422z"/>
	<path style="fill:#8E8D8D;" d="M137.966,344.579c-0.389,0-0.707,0.295-0.707,0.662v3.904h1.414v-3.904
		C138.673,344.875,138.355,344.579,137.966,344.579z"/>
	<path style="fill:#8E8D8D;" d="M140.554,344.875c-0.344,0-0.625,0.262-0.625,0.583v3.684h1.245v-3.684
		C141.178,345.136,140.898,344.875,140.554,344.875z"/>
	<path style="fill:#8E8D8D;" d="M142.854,345.088c-0.254,0-0.46,0.236-0.46,0.524v3.493h0.916v-3.493
		C143.31,345.323,143.108,345.088,142.854,345.088z"/>
	<path style="fill:#8E8D8D;" d="M125.88,344.265c-0.486,0-0.879,0.333-0.879,0.74v4.136h1.758v-4.136
		C126.758,344.594,126.362,344.265,125.88,344.265z"/>
	<path style="fill:#8E8D8D;" d="M128.939,344.108c-0.568,0-1.032,0.359-1.032,0.804v4.308h2.064v-4.308
		C129.971,344.463,129.507,344.108,128.939,344.108z"/>
	<path style="fill:#8E8D8D;" d="M122.813,344.422c-0.411,0-0.744,0.314-0.744,0.703v4.02h1.488v-4.02
		C123.561,344.736,123.228,344.422,122.813,344.422z"/>
	<path style="fill:#8E8D8D;" d="M119.911,344.579c-0.389,0-0.707,0.295-0.707,0.662v3.904h1.414v-3.904
		C120.618,344.875,120.3,344.579,119.911,344.579z"/>
	<path style="fill:#8E8D8D;" d="M117.324,344.875c-0.344,0-0.625,0.262-0.625,0.583v3.684h1.245v-3.684
		C117.944,345.136,117.668,344.875,117.324,344.875z"/>
	<path style="fill:#8E8D8D;" d="M115.203,345.088c-0.254,0-0.46,0.236-0.46,0.524v3.493h0.916v-3.493
		C115.663,345.323,115.457,345.088,115.203,345.088z"/>
	<path style="fill:#8E8D8D;" d="M171.08,344.265c-0.505,0-0.916,0.333-0.916,0.74v4.136H172v-4.136
		C172,344.594,171.588,344.265,171.08,344.265z"/>
	<path style="fill:#8E8D8D;" d="M174.105,344.422c-0.411,0-0.748,0.314-0.748,0.703v4.02h1.488v-4.02
		C174.846,344.736,174.513,344.422,174.105,344.422z"/>
	<path style="fill:#8E8D8D;" d="M177.044,344.579c-0.389,0-0.707,0.295-0.707,0.662v3.904h1.414v-3.904
		C177.751,344.875,177.433,344.579,177.044,344.579z"/>
	<path style="fill:#8E8D8D;" d="M179.636,344.875c-0.344,0-0.625,0.262-0.625,0.583v3.684h1.245v-3.684
		C180.261,345.136,179.98,344.875,179.636,344.875z"/>
	<path style="fill:#8E8D8D;" d="M181.932,345.088c-0.254,0-0.46,0.236-0.46,0.524v3.493h0.916v-3.493
		C182.392,345.323,182.186,345.088,181.932,345.088z"/>
	<path style="fill:#8E8D8D;" d="M164.958,344.265c-0.486,0-0.879,0.333-0.879,0.74v4.136h1.758v-4.136
		C165.837,344.594,165.444,344.265,164.958,344.265z"/>
	<path style="fill:#8E8D8D;" d="M168.021,344.108c-0.572,0-1.032,0.359-1.032,0.804v4.308h2.06v-4.308
		C169.049,344.463,168.589,344.108,168.021,344.108z"/>
	<path style="fill:#8E8D8D;" d="M161.895,344.422c-0.408,0-0.744,0.314-0.744,0.703v4.02h1.488v-4.02
		C162.64,344.736,162.307,344.422,161.895,344.422z"/>
	<path style="fill:#8E8D8D;" d="M158.994,344.579c-0.389,0-0.703,0.295-0.703,0.662v3.904h1.414v-3.904
		C159.7,344.875,159.382,344.579,158.994,344.579z"/>
	<path style="fill:#8E8D8D;" d="M156.402,344.875c-0.344,0-0.621,0.262-0.621,0.583v3.684h1.245v-3.684
		C157.027,345.136,156.75,344.875,156.402,344.875z"/>
	<path style="fill:#8E8D8D;" d="M154.282,345.088c-0.251,0-0.46,0.236-0.46,0.524v3.493h0.92v-3.493
		C154.742,345.323,154.536,345.088,154.282,345.088z"/>
	<path style="fill:#8E8D8D;" d="M208.539,344.265c-0.509,0-0.916,0.333-0.916,0.74v4.136h1.836v-4.136
		C209.459,344.594,209.048,344.265,208.539,344.265z"/>
	<path style="fill:#8E8D8D;" d="M211.561,344.422c-0.411,0-0.744,0.314-0.744,0.703v4.02h1.488v-4.02
		C212.305,344.736,211.976,344.422,211.561,344.422z"/>
	<path style="fill:#8E8D8D;" d="M214.504,344.579c-0.389,0-0.707,0.295-0.707,0.662v3.904h1.414v-3.904
		C215.211,344.875,214.896,344.579,214.504,344.579z"/>
	<path style="fill:#8E8D8D;" d="M217.095,344.875c-0.344,0-0.625,0.262-0.625,0.583v3.684h1.245v-3.684
		C217.716,345.136,217.439,344.875,217.095,344.875z"/>
	<path style="fill:#8E8D8D;" d="M219.395,345.088c-0.254,0-0.46,0.236-0.46,0.524v3.493h0.92v-3.493
		C219.855,345.323,219.646,345.088,219.395,345.088z"/>
	<path style="fill:#8E8D8D;" d="M202.417,344.265c-0.486,0-0.879,0.333-0.879,0.74v4.136h1.758v-4.136
		C203.296,344.594,202.904,344.265,202.417,344.265z"/>
	<path style="fill:#8E8D8D;" d="M205.48,344.108c-0.568,0-1.032,0.359-1.032,0.804v4.308h2.064v-4.308
		C206.512,344.463,206.049,344.108,205.48,344.108z"/>
	<path style="fill:#8E8D8D;" d="M199.355,344.422c-0.411,0-0.744,0.314-0.744,0.703v4.02h1.488v-4.02
		C200.099,344.736,199.766,344.422,199.355,344.422z"/>
	<path style="fill:#8E8D8D;" d="M196.453,344.579c-0.389,0-0.707,0.295-0.707,0.662v3.904h1.414v-3.904
		C197.16,344.875,196.846,344.579,196.453,344.579z"/>
	<path style="fill:#8E8D8D;" d="M193.861,344.875c-0.344,0-0.625,0.262-0.625,0.583v3.684h1.245v-3.684
		C194.486,345.136,194.205,344.875,193.861,344.875z"/>
	<path style="fill:#8E8D8D;" d="M191.745,345.088c-0.254,0-0.46,0.236-0.46,0.524v3.493h0.92v-3.493
		C192.205,345.323,191.995,345.088,191.745,345.088z"/>
	<path style="fill:#8E8D8D;" d="M271.88,344.265c-0.505,0-0.916,0.333-0.916,0.74v4.136h1.836v-4.136
		C272.8,344.594,272.385,344.265,271.88,344.265z"/>
	<path style="fill:#8E8D8D;" d="M274.902,344.422c-0.411,0-0.744,0.314-0.744,0.703v4.02h1.488v-4.02
		C275.646,344.736,275.317,344.422,274.902,344.422z"/>
	<path style="fill:#8E8D8D;" d="M277.845,344.579c-0.389,0-0.707,0.295-0.707,0.662v3.904h1.414v-3.904
		C278.551,344.875,278.237,344.579,277.845,344.579z"/>
	<path style="fill:#8E8D8D;" d="M280.436,344.875c-0.344,0-0.625,0.262-0.625,0.583v3.684h1.249v-3.684
		C281.061,345.136,280.78,344.875,280.436,344.875z"/>
	<path style="fill:#8E8D8D;" d="M282.732,345.088c-0.254,0-0.46,0.236-0.46,0.524v3.493h0.916v-3.493
		C283.192,345.323,282.987,345.088,282.732,345.088z"/>
	<path style="fill:#8E8D8D;" d="M265.758,344.265c-0.486,0-0.879,0.333-0.879,0.74v4.136h1.758v-4.136
		C266.637,344.594,266.241,344.265,265.758,344.265z"/>
	<path style="fill:#8E8D8D;" d="M268.821,344.108c-0.572,0-1.032,0.359-1.032,0.804v4.308h2.064v-4.308
		C269.849,344.463,269.39,344.108,268.821,344.108z"/>
	<path style="fill:#8E8D8D;" d="M262.696,344.422c-0.411,0-0.744,0.314-0.744,0.703v4.02h1.488v-4.02
		C263.44,344.736,263.107,344.422,262.696,344.422z"/>
	<path style="fill:#8E8D8D;" d="M259.794,344.579c-0.389,0-0.707,0.295-0.707,0.662v3.904h1.414v-3.904
		C260.501,344.875,260.183,344.579,259.794,344.579z"/>
	<path style="fill:#8E8D8D;" d="M257.202,344.875c-0.344,0-0.625,0.262-0.625,0.583v3.684h1.245v-3.684
		C257.827,345.136,257.546,344.875,257.202,344.875z"/>
	<path style="fill:#8E8D8D;" d="M255.082,345.088c-0.254,0-0.46,0.236-0.46,0.524v3.493h0.916v-3.493
		C255.542,345.323,255.336,345.088,255.082,345.088z"/>
	<path style="fill:#8E8D8D;" d="M308.569,344.265c-0.509,0-0.916,0.333-0.916,0.74v4.136h1.836v-4.136
		C309.489,344.594,309.078,344.265,308.569,344.265z"/>
	<path style="fill:#8E8D8D;" d="M311.591,344.422c-0.411,0-0.744,0.314-0.744,0.703v4.02h1.488v-4.02
		C312.339,344.736,312.006,344.422,311.591,344.422z"/>
	<path style="fill:#8E8D8D;" d="M314.534,344.579c-0.389,0-0.707,0.295-0.707,0.662v3.904h1.414v-3.904
		C315.24,344.875,314.923,344.579,314.534,344.579z"/>
	<path style="fill:#8E8D8D;" d="M317.125,344.875c-0.344,0-0.625,0.262-0.625,0.583v3.684h1.249v-3.684
		C317.75,345.136,317.469,344.875,317.125,344.875z"/>
	<path style="fill:#8E8D8D;" d="M319.425,345.088c-0.251,0-0.46,0.236-0.46,0.524v3.493h0.916v-3.493
		C319.881,345.323,319.676,345.088,319.425,345.088z"/>
	<path style="fill:#8E8D8D;" d="M302.447,344.265c-0.486,0-0.879,0.333-0.879,0.74v4.136h1.758v-4.136
		C303.326,344.594,302.934,344.265,302.447,344.265z"/>
	<path style="fill:#8E8D8D;" d="M305.51,344.108c-0.568,0-1.032,0.359-1.032,0.804v4.308h2.064v-4.308
		C306.538,344.463,306.078,344.108,305.51,344.108z"/>
	<path style="fill:#8E8D8D;" d="M299.385,344.422c-0.411,0-0.744,0.314-0.744,0.703v4.02h1.492v-4.02
		C300.133,344.736,299.796,344.422,299.385,344.422z"/>
	<path style="fill:#8E8D8D;" d="M296.479,344.579c-0.389,0-0.703,0.295-0.703,0.662v3.904h1.41v-3.904
		C297.19,344.875,296.872,344.579,296.479,344.579z"/>
	<path style="fill:#8E8D8D;" d="M293.891,344.875c-0.344,0-0.625,0.262-0.625,0.583v3.684h1.245v-3.684
		C294.516,345.136,294.235,344.875,293.891,344.875z"/>
	<path style="fill:#8E8D8D;" d="M291.771,345.088c-0.254,0-0.46,0.236-0.46,0.524v3.493h0.916v-3.493
		C292.231,345.323,292.025,345.088,291.771,345.088z"/>
	<path style="fill:#8E8D8D;" d="M347.651,344.265c-0.509,0-0.92,0.333-0.92,0.74v4.136h1.836v-4.136
		C348.568,344.594,348.16,344.265,347.651,344.265z"/>
	<path style="fill:#8E8D8D;" d="M350.673,344.422c-0.411,0-0.748,0.314-0.748,0.703v4.02h1.488v-4.02
		C351.417,344.736,351.084,344.422,350.673,344.422z"/>
	<path style="fill:#8E8D8D;" d="M353.616,344.579c-0.393,0-0.707,0.295-0.707,0.662v3.904h1.414v-3.904
		C354.323,344.875,354.009,344.579,353.616,344.579z"/>
	<path style="fill:#8E8D8D;" d="M356.207,344.875c-0.348,0-0.625,0.262-0.625,0.583v3.684h1.245v-3.684
		C356.828,345.136,356.552,344.875,356.207,344.875z"/>
	<path style="fill:#8E8D8D;" d="M358.504,345.088c-0.254,0-0.46,0.236-0.46,0.524v3.493h0.92v-3.493
		C358.964,345.323,358.758,345.088,358.504,345.088z"/>
	<path style="fill:#8E8D8D;" d="M341.53,344.265c-0.486,0-0.879,0.333-0.879,0.74v4.136h1.758v-4.136
		C342.408,344.594,342.016,344.265,341.53,344.265z"/>
	<path style="fill:#8E8D8D;" d="M344.592,344.108c-0.572,0-1.032,0.359-1.032,0.804v4.308h2.064v-4.308
		C345.621,344.463,345.157,344.108,344.592,344.108z"/>
	<path style="fill:#8E8D8D;" d="M338.467,344.422c-0.411,0-0.744,0.314-0.744,0.703v4.02h1.488v-4.02
		C339.215,344.736,338.878,344.422,338.467,344.422z"/>
	<path style="fill:#8E8D8D;" d="M335.561,344.579c-0.389,0-0.707,0.295-0.707,0.662v3.904h1.414v-3.904
		C336.268,344.875,335.954,344.579,335.561,344.579z"/>
	<path style="fill:#8E8D8D;" d="M332.974,344.875c-0.344,0-0.625,0.262-0.625,0.583v3.684h1.245v-3.684
		C333.598,345.136,333.318,344.875,332.974,344.875z"/>
	<path style="fill:#8E8D8D;" d="M330.853,345.088c-0.254,0-0.46,0.236-0.46,0.524v3.493h0.92v-3.493
		C331.313,345.323,331.107,345.088,330.853,345.088z"/>
	<path style="fill:#8E8D8D;" d="M385.107,344.265c-0.505,0-0.916,0.333-0.916,0.74v4.136h1.836v-4.136
		C386.027,344.594,385.615,344.265,385.107,344.265z"/>
	<path style="fill:#8E8D8D;" d="M388.132,344.422c-0.411,0-0.744,0.314-0.744,0.703v4.02h1.488v-4.02
		C388.876,344.736,388.544,344.422,388.132,344.422z"/>
	<path style="fill:#8E8D8D;" d="M391.075,344.579c-0.389,0-0.707,0.295-0.707,0.662v3.904h1.414v-3.904
		C391.782,344.875,391.464,344.579,391.075,344.579z"/>
	<path style="fill:#8E8D8D;" d="M393.667,344.875c-0.344,0-0.625,0.262-0.625,0.583v3.684h1.245v-3.684
		C394.288,345.136,394.011,344.875,393.667,344.875z"/>
	<path style="fill:#8E8D8D;" d="M395.963,345.088c-0.251,0-0.456,0.236-0.456,0.524v3.493h0.916v-3.493
		C396.423,345.323,396.217,345.088,395.963,345.088z"/>
	<path style="fill:#8E8D8D;" d="M378.989,344.265c-0.486,0-0.879,0.333-0.879,0.74v4.136h1.758v-4.136
		C379.868,344.594,379.471,344.265,378.989,344.265z"/>
	<path style="fill:#8E8D8D;" d="M382.048,344.108c-0.568,0-1.032,0.359-1.032,0.804v4.308h2.064v-4.308
		C383.08,344.463,382.62,344.108,382.048,344.108z"/>
	<path style="fill:#8E8D8D;" d="M375.926,344.422c-0.411,0-0.744,0.314-0.744,0.703v4.02h1.488v-4.02
		C376.67,344.736,376.338,344.422,375.926,344.422z"/>
	<path style="fill:#8E8D8D;" d="M373.024,344.579c-0.393,0-0.707,0.295-0.707,0.662v3.904h1.41v-3.904
		C373.727,344.875,373.413,344.579,373.024,344.579z"/>
	<path style="fill:#8E8D8D;" d="M370.433,344.875c-0.344,0-0.625,0.262-0.625,0.583v3.684h1.245v-3.684
		C371.057,345.136,370.777,344.875,370.433,344.875z"/>
	<path style="fill:#8E8D8D;" d="M368.312,345.088c-0.254,0-0.46,0.236-0.46,0.524v3.493h0.916v-3.493
		C368.769,345.323,368.567,345.088,368.312,345.088z"/>
</g>
<g>
</g>
<g>
</g>
<g>
</g>
<g>
</g>
<g>
</g>
<g>
</g>
<g>
</g>
<g>
</g>
<g>
</g>
<g>
</g>
<g>
</g>
<g>
</g>
<g>
</g>
<g>
</g>
<g>
</g>
</svg>
